<svg xmlns="http://www.w3.org/2000/svg" fill="none" viewBox="0 0 24 24"><path fill="#7A7A7A" fill-rule="evenodd" d="M6.25 5A.75.75 0 0 1 7 4.25h14a.75.75 0 0 1 .75.75v2.333a.75.75 0 0 1-1.5 0V5.75h-5.5v12.5h2.75a.75.75 0 0 1 0 1.5h-7a.75.75 0 0 1 0-1.5h2.75V5.75h-5.5v1.583a.75.75 0 1 1-1.5 0z" clip-rule="evenodd"/><path fill="#7A7A7A" fill-rule="evenodd" d="M1.25 13a.75.75 0 0 1 .75-.75h5a.75.75 0 0 1 0 1.5H2a.75.75 0 0 1-.75-.75" clip-rule="evenodd"/><path fill="#7A7A7A" fill-rule="evenodd" d="M4.5 16.25a.75.75 0 0 1-.75-.75v-5a.75.75 0 0 1 1.5 0v5a.75.75 0 0 1-.75.75" clip-rule="evenodd"/></svg>