<svg xmlns="http://www.w3.org/2000/svg" fill="none" viewBox="0 0 24 24"><path fill="#7A7A7A" fill-rule="evenodd" d="M9.551 3.255c.386-.737 1.208-1.005 2.12-1.005.942 0 1.768.321 2.078 1.158.262.708.021 1.505-.279 2.128-.17.354-.39.71-.637 1.053.324.213.67.396 1.028.53.393.148.85.234 1.318.266a6.2 6.2 0 0 1 .288-1.454c.209-.61.592-1.277 1.29-1.531.748-.273 1.5.048 2.146.602.667.572 1.081 1.33.768 2.14-.266.687-.961 1.1-1.593 1.34a6.5 6.5 0 0 1-1.405.345c.035.462.108.933.221 1.384q.061.246.164.476a5.2 5.2 0 0 1 1.425-.981c.653-.29 1.421-.407 2.096-.063.703.358 1.063 1.088 1.15 1.961.096.955-.145 1.789-.835 2.262-.648.444-1.462.406-2.144.195a4.9 4.9 0 0 1-1.696-.958 6.8 6.8 0 0 0-.627 1.464c1.015-.073 1.886.121 2.546.534.647.405 1.089 1.033 1.152 1.783.063.747-.26 1.476-.859 2.075-.56.56-1.26.805-1.967.696-.684-.105-1.273-.522-1.7-1.08-.424-.555-.715-1.276-.815-2.101q-.406.154-.851.375-.623.313-1.107.623c.414.522.7 1.063.843 1.584.17.62.16 1.305-.217 1.86-.39.578-1.05.834-1.781.834-.694 0-1.352-.198-1.81-.657-.48-.48-.636-1.143-.489-1.82.14-.646.549-1.296 1.171-1.912a7 7 0 0 0-.834-.522 4.3 4.3 0 0 0-.715-.308c-.054.791-.26 1.475-.6 2.01-.376.595-.94 1.029-1.64 1.125-.697.096-1.388-.162-1.986-.662-.625-.52-.82-1.245-.617-1.943.187-.64.683-1.18 1.28-1.553a4.5 4.5 0 0 1 1.949-.642 9 9 0 0 0-.275-1.022 5 5 0 0 0-.116-.316c-.502.4-1.064.694-1.603.858-.66.201-1.426.25-2.07-.084-.706-.367-1.066-1.087-1.066-1.98 0-.796.319-1.465.892-1.888.555-.41 1.262-.525 1.945-.413.678.11 1.36.441 1.958.985q.026-.075.044-.152c.102-.405.112-.919.033-1.474a8 8 0 0 1-1.343-.156c-.719-.152-1.511-.453-1.958-1.059a1.68 1.68 0 0 1-.326-1.17c.04-.423.225-.831.5-1.216.256-.36.571-.648.957-.802.4-.16.805-.147 1.172-.016.68.243 1.205.874 1.572 1.509.238.41.442.877.6 1.366.602-.068 1.108-.201 1.433-.364.284-.142.625-.392.973-.72A5.8 5.8 0 0 1 9.687 5.34c-.299-.608-.497-1.395-.136-2.085m2.137 2.355c.171-.245.318-.491.43-.726.263-.543.263-.85.224-.956-.008-.021-.019-.047-.084-.08-.083-.043-.26-.098-.587-.098-.335 0-.54.05-.656.1-.105.046-.128.088-.135.1-.024.047-.075.265.153.728.147.3.373.62.655.932m.16 2.122c-.458.447-.96.838-1.448 1.082-.494.247-1.125.407-1.774.493.078.649.068 1.313-.081 1.91a3.9 3.9 0 0 1-.473 1.106q.265.476.457 1.047.274.827.39 1.589c.492.106.997.287 1.502.56.49.263.93.557 1.32.871q.662-.45 1.52-.882.81-.403 1.562-.631.095-.589.317-1.205a8.2 8.2 0 0 1 .884-1.749 4.6 4.6 0 0 1-.585-1.348 10 10 0 0 1-.266-1.688 6.3 6.3 0 0 1-1.84-.363 6.8 6.8 0 0 1-1.486-.792m-5.143.118a5 5 0 0 0-.307-.629c-.312-.54-.607-.786-.778-.847-.057-.02-.084-.015-.111-.004-.042.016-.148.076-.293.28-.177.248-.22.406-.227.483a.18.18 0 0 0 .04.142c.106.144.43.348 1.061.482q.291.06.615.093m-.527 4.403c-.442-.454-.928-.686-1.332-.752-.373-.06-.65.02-.814.14-.146.108-.282.305-.282.68 0 .475.162.6.258.65.16.083.478.121.941-.02.428-.13.861-.376 1.229-.699m1.324 4.108a3 3 0 0 0-1.275.419c-.393.246-.583.52-.636.702-.037.125-.028.232.137.37.365.305.646.352.822.328.173-.024.384-.136.577-.442.192-.303.341-.767.375-1.377m4.136 2.027-.029.028c-.503.495-.712.904-.771 1.176-.054.248.012.37.084.441.093.094.318.217.749.217.392 0 .506-.125.539-.174.048-.07.112-.259.012-.622-.085-.31-.276-.68-.584-1.066m4.615-2.297c.046.674.264 1.214.538 1.573.251.329.523.476.735.509.188.029.42-.016.679-.274.365-.366.443-.682.425-.89-.017-.203-.137-.439-.453-.637-.378-.236-1.03-.396-1.924-.281m1.707-4.187c.385.344.822.597 1.232.724.47.145.742.077.853 0 .068-.046.257-.222.192-.875-.057-.575-.251-.73-.338-.774-.115-.058-.373-.095-.807.098-.356.158-.75.438-1.132.827m-1.265-4.597a4.7 4.7 0 0 0 .85-.227c.533-.202.701-.412.727-.478V6.6c.002-.004.008-.015-.01-.061-.028-.069-.111-.206-.336-.4-.231-.198-.4-.284-.508-.318-.097-.03-.136-.017-.148-.013-.048.017-.222.134-.384.608a4.4 4.4 0 0 0-.19.89" clip-rule="evenodd"/></svg>