<svg xmlns="http://www.w3.org/2000/svg" fill="none" viewBox="0 0 24 24"><path fill="#7A7A7A" fill-rule="evenodd" d="M13.982 4.272a.75.75 0 0 1 .546.91l-3.6 14.4a.75.75 0 1 1-1.456-.364l3.6-14.4a.75.75 0 0 1 .91-.546M7.13 8.07a.75.75 0 0 1 0 1.06L4.06 12.2l3.07 3.07a.75.75 0 0 1-1.06 1.06l-3.6-3.6a.75.75 0 0 1 0-1.06l3.6-3.6a.75.75 0 0 1 1.06 0m9.74 0a.75.75 0 0 1 1.06 0l3.6 3.6a.75.75 0 0 1 0 1.06l-3.6 3.6a.75.75 0 1 1-1.06-1.06l3.07-3.07-3.07-3.07a.75.75 0 0 1 0-1.06" clip-rule="evenodd"/></svg>