<svg xmlns="http://www.w3.org/2000/svg" fill="none" viewBox="0 0 24 24"><path fill="#7A7A7A" fill-rule="evenodd" d="M3.25 12a.75.75 0 0 1 .75-.75h16a.75.75 0 0 1 0 1.5H4a.75.75 0 0 1-.75-.75M12.53 10.53a.75.75 0 0 1-1.06 0l-3-3a.75.75 0 0 1 1.06-1.06L12 8.94l2.47-2.47a.75.75 0 1 1 1.06 1.06zM15.53 17.53a.75.75 0 0 1-1.06 0L12 15.06l-2.47 2.47a.75.75 0 0 1-1.06-1.06l3-3a.75.75 0 0 1 1.06 0l3 3a.75.75 0 0 1 0 1.06" clip-rule="evenodd"/><path fill="#7A7A7A" fill-rule="evenodd" d="M12 2.25a.75.75 0 0 1 .75.75v6a.75.75 0 0 1-1.5 0V3a.75.75 0 0 1 .75-.75M11.25 21v-7h1.5v7a.75.75 0 0 1-1.5 0" clip-rule="evenodd"/></svg>