<svg xmlns="http://www.w3.org/2000/svg" fill="none" viewBox="0 0 24 24"><path fill="#7A7A7A" fill-rule="evenodd" d="M8 2.25A2.75 2.75 0 0 0 5.25 5v3a.75.75 0 0 0 1.5 0V5c0-.69.56-1.25 1.25-1.25h7.522c.386 0 .75.178.987.483l2.478 3.186c.17.22.263.49.263.767V18c0 .69-.56 1.25-1.25 1.25H8c-.69 0-1.25-.56-1.25-1.25v-1.5a.75.75 0 0 0-1.5 0V18A2.75 2.75 0 0 0 8 20.75h10A2.75 2.75 0 0 0 20.75 18V8.186a2.75 2.75 0 0 0-.58-1.688l-2.477-3.186a2.75 2.75 0 0 0-2.171-1.062H8M2.793 13.923c0 .416.226.65.621.65.396 0 .621-.234.621-.65v-.577h.604c.987 0 1.658-.6 1.658-1.533 0-.94-.633-1.54-1.573-1.54h-1.31c-.395 0-.621.234-.621.65zm1.59-1.494h-.348v-1.222h.358c.404 0 .65.208.65.61 0 .404-.246.612-.66.612m2.353 1.529c0 .398.214.615.586.615.37 0 .586-.217.586-.615v-1.685h.024l1.444 1.96c.176.24.343.34.58.34.37 0 .571-.202.571-.574v-3.184c0-.399-.213-.616-.586-.616-.369 0-.586.217-.586.616v1.649h-.023l-1.433-1.925c-.178-.237-.351-.34-.577-.34-.38 0-.586.2-.586.574zm4.275-1.576c0 1.403.794 2.191 2.136 2.191 1.26 0 1.957-.773 1.957-1.778 0-.416-.226-.65-.622-.65h-.817c-.281 0-.46.146-.46.413 0 .266.182.413.46.413h.243l-.006.058c-.035.34-.322.566-.726.566-.545 0-.9-.46-.9-1.23 0-.754.31-1.187.838-1.187.3 0 .501.111.7.378a.68.68 0 0 0 .58.296c.317 0 .534-.214.534-.525a.65.65 0 0 0-.085-.32c-.25-.444-.888-.808-1.735-.808-1.303 0-2.097.797-2.097 2.183" clip-rule="evenodd"/></svg>