<svg xmlns="http://www.w3.org/2000/svg" fill="none" viewBox="0 0 24 24"><path fill="#fff" d="M4.2 2.4A2.4 2.4 0 0 1 6.6 0h9.6c.192 0 .376.076.512.212l6.476 6.476c.136.136.212.32.212.512v14.4A2.4 2.4 0 0 1 21 24H6.6a2.4 2.4 0 0 1-2.4-2.4z"/><path fill="#CDCDCD" fill-rule="evenodd" d="M6.6 23.1H21a1.5 1.5 0 0 0 1.5-1.5V7.273L16.127.9H6.6a1.5 1.5 0 0 0-1.5 1.5v19.2a1.5 1.5 0 0 0 1.5 1.5M6.6 0a2.4 2.4 0 0 0-2.4 2.4v19.2A2.4 2.4 0 0 0 6.6 24H21a2.4 2.4 0 0 0 2.4-2.4V7.2a.72.72 0 0 0-.212-.512L16.712.212A.72.72 0 0 0 16.2 0z" clip-rule="evenodd"/><path fill="#CDCDCD" fill-rule="evenodd" d="M15.75 4.8V.3h.9v4.5a1.95 1.95 0 0 0 1.95 1.95h4.5v.9h-4.5a2.85 2.85 0 0 1-2.85-2.85" clip-rule="evenodd"/><rect width="19.8" height="9.6" x=".6" y="10.8" fill="#ED3F3F" rx="1.2"/><path fill="#fff" d="M3.246 18v-4.364h1.722q.496 0 .846.19.35.188.532.522.186.332.186.767t-.188.767a1.3 1.3 0 0 1-.543.518q-.354.185-.857.185H3.847v-.74h.948q.267 0 .439-.09a.6.6 0 0 0 .26-.259.8.8 0 0 0 .087-.381.8.8 0 0 0-.087-.38.6.6 0 0 0-.26-.253.95.95 0 0 0-.443-.091h-.622V18zM7.13 18v-4.364h1.722q.496 0 .846.19.349.188.533.522.186.332.185.767 0 .435-.187.767a1.3 1.3 0 0 1-.543.518q-.354.185-.857.185H7.732v-.74h.948q.266 0 .439-.09a.6.6 0 0 0 .26-.259.8.8 0 0 0 .087-.381.8.8 0 0 0-.087-.38.6.6 0 0 0-.26-.253.95.95 0 0 0-.443-.091h-.623V18zM10.85 14.397v-.76h3.583v.76h-1.336V18h-.912v-3.603zM15.889 13.636l.88 1.488h.034l.884-1.488h1.042l-1.332 2.182L18.759 18h-1.062l-.894-1.49h-.035L15.875 18h-1.057l1.366-2.182-1.34-2.182z"/></svg>