<svg xmlns="http://www.w3.org/2000/svg" fill="none" viewBox="0 0 24 24"><path fill="#fff" d="M4.2 2.4A2.4 2.4 0 0 1 6.6 0h9.6c.192 0 .376.076.512.212l6.476 6.476c.136.136.212.32.212.512v14.4A2.4 2.4 0 0 1 21 24H6.6a2.4 2.4 0 0 1-2.4-2.4z"/><path fill="#CDCDCD" fill-rule="evenodd" d="M6.6 23.1H21a1.5 1.5 0 0 0 1.5-1.5V7.273L16.127.9H6.6a1.5 1.5 0 0 0-1.5 1.5v19.2a1.5 1.5 0 0 0 1.5 1.5M6.6 0a2.4 2.4 0 0 0-2.4 2.4v19.2A2.4 2.4 0 0 0 6.6 24H21a2.4 2.4 0 0 0 2.4-2.4V7.2a.72.72 0 0 0-.212-.512L16.712.212A.72.72 0 0 0 16.2 0z" clip-rule="evenodd"/><path fill="#CDCDCD" fill-rule="evenodd" d="M15.75 4.8V.3h.9v4.5a1.95 1.95 0 0 0 1.95 1.95h4.5v.9h-4.5a2.85 2.85 0 0 1-2.85-2.85" clip-rule="evenodd"/><rect width="18.6" height="9.6" x=".6" y="10.8" fill="#6E52DF" rx="1.2"/><path fill="#fff" d="M3.79 13.636V18h-.923v-4.364zM8.199 13.636V18h-.797l-1.899-2.746h-.032V18H4.55v-4.364h.81l1.883 2.745h.038v-2.745zM10.508 18H8.96v-4.364h1.56q.657 0 1.133.262.475.26.73.748.26.489.259 1.168 0 .681-.258 1.172-.256.49-.735.752-.478.262-1.142.262m-.625-.79h.586q.41 0 .689-.145a.93.93 0 0 0 .421-.454q.144-.31.143-.797 0-.483-.143-.79a.92.92 0 0 0-.42-.452 1.5 1.5 0 0 0-.687-.145h-.589zM14.873 18h-1.547v-4.364h1.56q.659 0 1.133.262.475.26.731.748.258.489.258 1.168 0 .681-.258 1.172-.255.49-.735.752-.477.262-1.142.262m-.624-.79h.586q.408 0 .688-.145a.93.93 0 0 0 .422-.454q.142-.31.142-.797 0-.483-.142-.79a.93.93 0 0 0-.42-.452 1.5 1.5 0 0 0-.688-.145h-.588z"/></svg>