<svg xmlns="http://www.w3.org/2000/svg" fill="none" viewBox="0 0 24 24"><path fill="#fff" d="M4.2 2.4A2.4 2.4 0 0 1 6.6 0h9.6c.192 0 .376.076.512.212l6.476 6.476c.136.136.212.32.212.512v14.4A2.4 2.4 0 0 1 21 24H6.6a2.4 2.4 0 0 1-2.4-2.4z"/><path fill="#CDCDCD" fill-rule="evenodd" d="M6.6 23.1H21a1.5 1.5 0 0 0 1.5-1.5V7.273L16.127.9H6.6a1.5 1.5 0 0 0-1.5 1.5v19.2a1.5 1.5 0 0 0 1.5 1.5M6.6 0a2.4 2.4 0 0 0-2.4 2.4v19.2A2.4 2.4 0 0 0 6.6 24H21a2.4 2.4 0 0 0 2.4-2.4V7.2a.72.72 0 0 0-.212-.512L16.712.212A.72.72 0 0 0 16.2 0z" clip-rule="evenodd"/><path fill="#CDCDCD" fill-rule="evenodd" d="M15.75 4.8V.3h.9v4.5a1.95 1.95 0 0 0 1.95 1.95h4.5v.9h-4.5a2.85 2.85 0 0 1-2.85-2.85" clip-rule="evenodd"/><rect width="21.6" height="9.6" x=".6" y="10.8" fill="#6E52DF" rx="1.2"/><path fill="#fff" d="m3.89 18-1.248-4.364H3.65l.722 3.032h.036l.797-3.032h.863l.795 3.039H6.9l.723-3.039H8.63L7.383 18h-.9l-.83-2.853h-.034L4.789 18zM9.125 18v-4.364h2.94v.761h-2.017v1.04h1.866v.76h-1.866v1.042h2.026V18zM12.799 18v-4.364h1.747q.482 0 .803.143t.484.396q.162.252.162.58a.883.883 0 0 1-.384.765q-.177.12-.404.173v.042a.996.996 0 0 1 .822.505q.136.233.136.554 0 .348-.172.62-.17.27-.505.428t-.825.158zm.923-.754h.752q.385 0 .562-.147a.5.5 0 0 0 .177-.397q0-.18-.087-.32a.6.6 0 0 0-.25-.216.85.85 0 0 0-.381-.08h-.773zm0-1.784h.684a.8.8 0 0 0 .336-.066.56.56 0 0 0 .234-.192.5.5 0 0 0 .088-.296.48.48 0 0 0-.168-.381q-.167-.145-.474-.145h-.7zM16.766 18v-4.364h1.721q.497 0 .846.19.349.188.533.522.185.332.185.767t-.187.767a1.3 1.3 0 0 1-.544.518q-.352.185-.856.185h-1.097v-.74h.948q.266 0 .439-.09a.6.6 0 0 0 .26-.259.8.8 0 0 0 .087-.381.8.8 0 0 0-.087-.38.6.6 0 0 0-.26-.253.95.95 0 0 0-.444-.091h-.622V18z"/></svg>