<svg xmlns="http://www.w3.org/2000/svg" fill="none" viewBox="0 0 24 24"><path fill="#fff" d="M4.2 2.4A2.4 2.4 0 0 1 6.6 0h9.6c.192 0 .376.076.512.212l6.476 6.476c.136.136.212.32.212.512v14.4A2.4 2.4 0 0 1 21 24H6.6a2.4 2.4 0 0 1-2.4-2.4z"/><path fill="#CDCDCD" fill-rule="evenodd" d="M6.6 23.1H21a1.5 1.5 0 0 0 1.5-1.5V7.273L16.127.9H6.6a1.5 1.5 0 0 0-1.5 1.5v19.2a1.5 1.5 0 0 0 1.5 1.5M6.6 0a2.4 2.4 0 0 0-2.4 2.4v19.2A2.4 2.4 0 0 0 6.6 24H21a2.4 2.4 0 0 0 2.4-2.4V7.2a.72.72 0 0 0-.212-.512L16.712.212A.72.72 0 0 0 16.2 0z" clip-rule="evenodd"/><path fill="#CDCDCD" fill-rule="evenodd" d="M15.75 4.8V.3h.9v4.5a1.95 1.95 0 0 0 1.95 1.95h4.5v.9h-4.5a2.85 2.85 0 0 1-2.85-2.85" clip-rule="evenodd"/><rect width="15.6" height="9.6" x=".6" y="10.8" fill="#6E52DF" rx="1.2"/><path fill="#fff" d="M3.034 18v-4.364h2.94v.761H3.958v1.04h1.866v.76H3.957v1.042h2.026V18zM6.708 18v-4.364H8.43q.496 0 .845.19.35.188.533.522.186.332.186.767t-.188.767a1.3 1.3 0 0 1-.543.518q-.354.185-.857.185H7.31v-.74h.948a.9.9 0 0 0 .439-.09.6.6 0 0 0 .26-.259.8.8 0 0 0 .087-.381.8.8 0 0 0-.087-.38.6.6 0 0 0-.26-.253.95.95 0 0 0-.443-.091H7.63V18zM12.96 14.891a.54.54 0 0 0-.22-.4q-.193-.143-.526-.143-.225 0-.381.064a.54.54 0 0 0-.239.172.4.4 0 0 0-.08.252.36.36 0 0 0 .048.204.5.5 0 0 0 .152.152q.095.06.221.108a2 2 0 0 0 .269.077l.392.094q.285.065.524.17.239.107.413.262.176.156.27.367.1.21.1.483 0 .402-.204.695a1.3 1.3 0 0 1-.58.454q-.376.16-.909.16a2.4 2.4 0 0 1-.92-.162 1.35 1.35 0 0 1-.61-.48q-.217-.32-.228-.79h.893a.67.67 0 0 0 .126.366.7.7 0 0 0 .3.22q.19.072.428.072.235 0 .407-.068a.6.6 0 0 0 .27-.19.44.44 0 0 0 .097-.279q0-.147-.088-.247a.7.7 0 0 0-.251-.17 2.6 2.6 0 0 0-.403-.128l-.475-.12q-.552-.134-.871-.42-.32-.285-.318-.768a1.14 1.14 0 0 1 .211-.693q.216-.296.59-.462.375-.165.853-.166.485 0 .848.166t.566.462q.202.297.21.686z"/></svg>