<svg xmlns="http://www.w3.org/2000/svg" fill="none" viewBox="0 0 24 24"><path fill="#fff" d="M4.2 2.4A2.4 2.4 0 0 1 6.6 0h9.6c.192 0 .376.076.512.212l6.476 6.476c.136.136.212.32.212.512v14.4A2.4 2.4 0 0 1 21 24H6.6a2.4 2.4 0 0 1-2.4-2.4z"/><path fill="#CDCDCD" fill-rule="evenodd" d="M6.6 23.1H21a1.5 1.5 0 0 0 1.5-1.5V7.273L16.127.9H6.6a1.5 1.5 0 0 0-1.5 1.5v19.2a1.5 1.5 0 0 0 1.5 1.5M6.6 0a2.4 2.4 0 0 0-2.4 2.4v19.2A2.4 2.4 0 0 0 6.6 24H21a2.4 2.4 0 0 0 2.4-2.4V7.2a.72.72 0 0 0-.212-.512L16.712.212A.72.72 0 0 0 16.2 0z" clip-rule="evenodd"/><path fill="#CDCDCD" fill-rule="evenodd" d="M15.75 4.8V.3h.9v4.5a1.95 1.95 0 0 0 1.95 1.95h4.5v.9h-4.5a2.85 2.85 0 0 1-2.85-2.85" clip-rule="evenodd"/><rect width="15.6" height="9.6" x=".6" y="10.8" fill="#6E52DF" rx="1.2"/><path fill="#fff" d="M4.591 13.636h.912v3.043q0 .422-.19.733a1.25 1.25 0 0 1-.522.48 1.7 1.7 0 0 1-.777.168q-.395 0-.716-.139a1.14 1.14 0 0 1-.507-.426q-.187-.288-.186-.722h.919a.66.66 0 0 0 .07.296.5.5 0 0 0 .185.187q.12.064.282.064.17 0 .287-.072.12-.074.181-.218a.9.9 0 0 0 .062-.351zM6.266 18v-4.364h1.721q.497 0 .846.19.349.188.533.522.185.332.185.767t-.187.767a1.3 1.3 0 0 1-.544.518q-.352.185-.856.185H6.867v-.74h.948q.266 0 .439-.09a.6.6 0 0 0 .26-.259.8.8 0 0 0 .087-.381.8.8 0 0 0-.087-.38.6.6 0 0 0-.26-.253.95.95 0 0 0-.443-.091h-.623V18zM13.044 15.047a1 1 0 0 0-.126-.275.849.849 0 0 0-.462-.335 1.1 1.1 0 0 0-.326-.044q-.335 0-.588.166a1.1 1.1 0 0 0-.392.484 1.9 1.9 0 0 0-.14.77q0 .457.138.776.138.32.392.488.253.167.599.167.312 0 .534-.111a.8.8 0 0 0 .341-.318.94.94 0 0 0 .12-.483l.187.027h-1.125v-.694h1.826v.55q0 .574-.243.988a1.66 1.66 0 0 1-.669.635q-.427.222-.976.222-.613 0-1.078-.271a1.9 1.9 0 0 1-.724-.773q-.258-.503-.258-1.194 0-.53.153-.946.156-.417.435-.707a1.9 1.9 0 0 1 .65-.441q.37-.15.803-.151.37 0 .69.108.32.107.567.303.25.196.407.466.158.27.203.593z"/></svg>