<svg xmlns="http://www.w3.org/2000/svg" fill="none" viewBox="0 0 24 24"><path fill="#fff" d="M4.2 2.4A2.4 2.4 0 0 1 6.6 0h9.6c.192 0 .376.076.512.212l6.476 6.476c.136.136.212.32.212.512v14.4A2.4 2.4 0 0 1 21 24H6.6a2.4 2.4 0 0 1-2.4-2.4z"/><path fill="#CDCDCD" fill-rule="evenodd" d="M6.6 23.1H21a1.5 1.5 0 0 0 1.5-1.5V7.273L16.127.9H6.6a1.5 1.5 0 0 0-1.5 1.5v19.2a1.5 1.5 0 0 0 1.5 1.5M6.6 0a2.4 2.4 0 0 0-2.4 2.4v19.2A2.4 2.4 0 0 0 6.6 24H21a2.4 2.4 0 0 0 2.4-2.4V7.2a.72.72 0 0 0-.212-.512L16.712.212A.72.72 0 0 0 16.2 0z" clip-rule="evenodd"/><path fill="#CDCDCD" fill-rule="evenodd" d="M15.75 4.8V.3h.9v4.5a1.95 1.95 0 0 0 1.95 1.95h4.5v.9h-4.5a2.85 2.85 0 0 1-2.85-2.85" clip-rule="evenodd"/><rect width="16.2" height="9.6" x=".6" y="10.8" fill="#0077CB" rx="1.2"/><path fill="#fff" d="M3.189 18v-4.364H4.91q.497 0 .846.19.349.188.533.522.185.333.185.767 0 .435-.187.767a1.3 1.3 0 0 1-.544.518q-.354.185-.856.185H3.789v-.739h.949a.9.9 0 0 0 .439-.092.6.6 0 0 0 .26-.258.8.8 0 0 0 .087-.38.8.8 0 0 0-.088-.38.6.6 0 0 0-.26-.254.95.95 0 0 0-.443-.091h-.622V18zM9.44 14.891a.54.54 0 0 0-.219-.4q-.195-.143-.526-.143-.226 0-.382.064a.54.54 0 0 0-.238.173.4.4 0 0 0-.081.251.36.36 0 0 0 .049.205.5.5 0 0 0 .151.15q.096.062.222.11.125.045.268.076l.392.094q.285.065.524.17.24.107.414.262t.27.367q.099.21.1.484-.002.4-.204.694a1.3 1.3 0 0 1-.58.454q-.376.16-.91.16a2.4 2.4 0 0 1-.92-.162 1.35 1.35 0 0 1-.61-.48q-.216-.32-.227-.79h.892a.67.67 0 0 0 .126.367q.113.145.3.219.19.072.429.072.234 0 .407-.068a.6.6 0 0 0 .27-.19.44.44 0 0 0 .096-.279q0-.147-.087-.247a.7.7 0 0 0-.251-.17 2.6 2.6 0 0 0-.403-.128l-.475-.12q-.552-.134-.872-.419t-.317-.77a1.14 1.14 0 0 1 .21-.692q.216-.295.59-.462.375-.165.853-.166.486 0 .848.166.365.166.567.462t.209.686zM12.552 18h-1.547v-4.364h1.56q.658 0 1.133.263.475.26.731.747.258.489.258 1.168 0 .681-.258 1.172-.255.49-.735.752-.477.262-1.142.262m-.624-.79h.585q.41 0 .689-.145a.93.93 0 0 0 .422-.454q.142-.31.142-.797 0-.484-.142-.79a.92.92 0 0 0-.42-.452 1.5 1.5 0 0 0-.688-.145h-.588z"/></svg>