<svg xmlns="http://www.w3.org/2000/svg" fill="none" viewBox="0 0 24 24"><path fill="#fff" d="M4.2 2.4A2.4 2.4 0 0 1 6.6 0h9.6c.192 0 .376.076.512.212l6.476 6.476c.136.136.212.32.212.512v14.4A2.4 2.4 0 0 1 21 24H6.6a2.4 2.4 0 0 1-2.4-2.4z"/><path fill="#CDCDCD" fill-rule="evenodd" d="M6.6 23.1H21a1.5 1.5 0 0 0 1.5-1.5V7.273L16.127.9H6.6a1.5 1.5 0 0 0-1.5 1.5v19.2a1.5 1.5 0 0 0 1.5 1.5M6.6 0a2.4 2.4 0 0 0-2.4 2.4v19.2A2.4 2.4 0 0 0 6.6 24H21a2.4 2.4 0 0 0 2.4-2.4V7.2a.72.72 0 0 0-.212-.512L16.712.212A.72.72 0 0 0 16.2 0z" clip-rule="evenodd"/><path fill="#CDCDCD" fill-rule="evenodd" d="M15.75 4.8V.3h.9v4.5a1.95 1.95 0 0 0 1.95 1.95h4.5v.9h-4.5a2.85 2.85 0 0 1-2.85-2.85" clip-rule="evenodd"/><rect width="13.2" height="9.6" x=".6" y="10.8" fill="#1E1B4B" rx="1.2"/><path fill="#fff" d="M2.948 18v-.548l2.178-3.055H2.944v-.76h3.34v.547l-2.179 3.055H6.29V18zM7.92 13.636V18h-.923v-4.364zM8.679 18v-4.364H10.4q.496 0 .846.19.349.188.533.522.185.332.185.767t-.187.767a1.3 1.3 0 0 1-.544.518q-.354.185-.856.185H9.279v-.74h.949q.265 0 .438-.09a.6.6 0 0 0 .26-.259.8.8 0 0 0 .088-.381.8.8 0 0 0-.088-.38.6.6 0 0 0-.26-.253.95.95 0 0 0-.443-.091h-.622V18z"/></svg>