<svg xmlns="http://www.w3.org/2000/svg" fill="none" viewBox="0 0 24 24"><path fill="#fff" d="M4.2 2.4A2.4 2.4 0 0 1 6.6 0h9.6c.192 0 .376.076.512.212l6.476 6.476c.136.136.212.32.212.512v14.4A2.4 2.4 0 0 1 21 24H6.6a2.4 2.4 0 0 1-2.4-2.4z"/><path fill="#CDCDCD" fill-rule="evenodd" d="M6.6 23.1H21a1.5 1.5 0 0 0 1.5-1.5V7.273L16.127.9H6.6a1.5 1.5 0 0 0-1.5 1.5v19.2a1.5 1.5 0 0 0 1.5 1.5M6.6 0a2.4 2.4 0 0 0-2.4 2.4v19.2A2.4 2.4 0 0 0 6.6 24H21a2.4 2.4 0 0 0 2.4-2.4V7.2a.72.72 0 0 0-.212-.512L16.712.212A.72.72 0 0 0 16.2 0z" clip-rule="evenodd"/><path fill="#CDCDCD" fill-rule="evenodd" d="M15.75 4.8V.3h.9v4.5a1.95 1.95 0 0 0 1.95 1.95h4.5v.9h-4.5a2.85 2.85 0 0 1-2.85-2.85" clip-rule="evenodd"/><rect width="17.4" height="9.6" x=".6" y="10.8" fill="#0077CB" rx="1.2"/><path fill="#fff" d="M3.059 13.636h1.138l1.201 2.932h.051l1.202-2.932h1.138V18h-.895v-2.84h-.036l-1.13 2.819H5.12l-1.13-2.83h-.035V18h-.895zM8.549 18v-4.364h1.722q.495 0 .845.19.349.188.533.522.186.332.186.767t-.188.767a1.3 1.3 0 0 1-.543.518q-.354.185-.857.185H9.15v-.74h.948q.266 0 .439-.09a.6.6 0 0 0 .26-.259.8.8 0 0 0 .087-.381.8.8 0 0 0-.087-.38.6.6 0 0 0-.26-.253.95.95 0 0 0-.443-.091h-.622V18zM12.342 17.233v-.727l1.822-2.87h.626v1.006h-.37l-1.149 1.817v.035h2.589v.739zm2.095.767v-.989l.017-.321v-3.054h.865V18z"/></svg>