<svg xmlns="http://www.w3.org/2000/svg" fill="none" viewBox="0 0 24 24"><path fill="#fff" d="M4.2 2.4A2.4 2.4 0 0 1 6.6 0h9.6c.192 0 .376.076.512.212l6.476 6.476c.136.136.212.32.212.512v14.4A2.4 2.4 0 0 1 21 24H6.6a2.4 2.4 0 0 1-2.4-2.4z"/><path fill="#CDCDCD" fill-rule="evenodd" d="M6.6 23.1H21a1.5 1.5 0 0 0 1.5-1.5V7.273L16.127.9H6.6a1.5 1.5 0 0 0-1.5 1.5v19.2a1.5 1.5 0 0 0 1.5 1.5M6.6 0a2.4 2.4 0 0 0-2.4 2.4v19.2A2.4 2.4 0 0 0 6.6 24H21a2.4 2.4 0 0 0 2.4-2.4V7.2a.72.72 0 0 0-.212-.512L16.712.212A.72.72 0 0 0 16.2 0z" clip-rule="evenodd"/><path fill="#CDCDCD" fill-rule="evenodd" d="M15.75 4.8V.3h.9v4.5a1.95 1.95 0 0 0 1.95 1.95h4.5v.9h-4.5a2.85 2.85 0 0 1-2.85-2.85" clip-rule="evenodd"/><rect width="16.2" height="9.6" x=".6" y="10.8" fill="#0077CB" rx="1.2"/><path fill="#fff" d="M6.942 15.164h-.933a.9.9 0 0 0-.105-.322.8.8 0 0 0-.202-.242.9.9 0 0 0-.286-.154 1.1 1.1 0 0 0-.347-.053q-.338 0-.59.168-.252.166-.39.486a1.9 1.9 0 0 0-.138.771q0 .467.138.784.14.318.392.48t.582.162q.185 0 .343-.05a.822.822 0 0 0 .488-.375.9.9 0 0 0 .115-.31l.933.004q-.037.3-.181.58-.143.277-.386.496-.24.218-.575.345a2.1 2.1 0 0 1-.752.126q-.584 0-1.044-.264a1.88 1.88 0 0 1-.725-.765q-.264-.5-.264-1.213t.269-1.214a1.87 1.87 0 0 1 .728-.763 2.04 2.04 0 0 1 1.036-.264q.38 0 .703.106.326.107.577.311.252.202.41.497.159.294.204.673M9.97 14.891a.54.54 0 0 0-.219-.4q-.193-.143-.526-.143-.226 0-.381.064a.54.54 0 0 0-.239.173.4.4 0 0 0-.081.251.36.36 0 0 0 .049.205.5.5 0 0 0 .151.15q.096.062.222.11.126.045.268.076l.392.094q.285.065.524.17.24.107.414.262.175.156.27.367.1.21.1.484 0 .4-.204.694a1.3 1.3 0 0 1-.58.454q-.375.16-.91.16a2.4 2.4 0 0 1-.92-.162 1.35 1.35 0 0 1-.61-.48q-.216-.32-.227-.79h.893a.67.67 0 0 0 .125.367q.114.145.3.219.19.072.43.072.233 0 .406-.068a.6.6 0 0 0 .27-.19.44.44 0 0 0 .097-.279q0-.147-.088-.247a.7.7 0 0 0-.251-.17 2.6 2.6 0 0 0-.403-.128l-.475-.12q-.552-.134-.872-.419t-.317-.77a1.14 1.14 0 0 1 .21-.692q.216-.295.591-.462.375-.165.852-.166.486 0 .848.166.364.166.567.462t.209.686zM13.902 14.891a.54.54 0 0 0-.22-.4q-.193-.143-.525-.143-.226 0-.382.064a.54.54 0 0 0-.238.173.4.4 0 0 0-.081.251.36.36 0 0 0 .049.205.5.5 0 0 0 .15.15q.097.062.223.11a2 2 0 0 0 .268.076l.392.094q.285.065.524.17.24.107.414.262t.27.367q.099.21.1.484-.002.4-.204.694a1.3 1.3 0 0 1-.58.454q-.376.16-.91.16a2.4 2.4 0 0 1-.92-.162 1.35 1.35 0 0 1-.61-.48q-.216-.32-.227-.79h.892a.67.67 0 0 0 .126.367.7.7 0 0 0 .3.219q.19.072.429.072.234 0 .407-.068a.6.6 0 0 0 .27-.19.44.44 0 0 0 .096-.279q0-.147-.087-.247a.7.7 0 0 0-.252-.17 2.6 2.6 0 0 0-.402-.128l-.475-.12q-.552-.134-.872-.419t-.317-.77a1.14 1.14 0 0 1 .21-.692q.216-.295.59-.462.376-.165.853-.166.486 0 .848.166.365.166.567.462t.209.686z"/></svg>