<svg xmlns="http://www.w3.org/2000/svg" fill="none" viewBox="0 0 24 24"><path fill="#7A7A7A" fill-rule="evenodd" d="M17.926 6.578v10.898c0 .602.33.963.862.963.541 0 .862-.351.862-.963V5.726c0-.682-.451-1.153-1.093-1.153-.39 0-.742.15-1.373.622l-2.026 1.504c-.4.29-.591.561-.591.852 0 .38.3.692.672.692.22 0 .43-.08.721-.291l1.885-1.374zM4.42 4.903a.77.77 0 0 1 .77.77v5.35h6.168v-5.35a.77.77 0 1 1 1.54 0v12.242a.77.77 0 0 1-1.54 0v-5.351H5.19v5.351a.77.77 0 1 1-1.54 0V5.673a.77.77 0 0 1 .77-.77" clip-rule="evenodd"/></svg>