<svg xmlns="http://www.w3.org/2000/svg" fill="none" viewBox="0 0 24 24"><path fill="#7A7A7A" fill-rule="evenodd" d="M6 3.25A2.75 2.75 0 0 0 3.25 6v12A2.75 2.75 0 0 0 6 20.75h12A2.75 2.75 0 0 0 20.75 18V6A2.75 2.75 0 0 0 18 3.25zM4.75 18v-1.69l4.366-4.365a1.25 1.25 0 0 1 1.768 0l2.586 2.585 2 2a.75.75 0 1 0 1.06-1.06L15.06 14l1.056-1.056a1.25 1.25 0 0 1 1.768 0l1.366 1.367V18c0 .69-.56 1.25-1.25 1.25H6c-.69 0-1.25-.56-1.25-1.25m7.195-7.116L14 12.939l1.056-1.055a2.75 2.75 0 0 1 3.889 0l.305.305V6c0-.69-.56-1.25-1.25-1.25H6c-.69 0-1.25.56-1.25 1.25v8.19l3.305-3.306a2.75 2.75 0 0 1 3.89 0M14 9a1 1 0 1 0 0-2 1 1 0 0 0 0 2" clip-rule="evenodd"/></svg>