<svg xmlns="http://www.w3.org/2000/svg" fill="none" viewBox="0 0 24 24"><path fill="#7A7A7A" fill-rule="evenodd" d="M4.25 6A2.75 2.75 0 0 1 7 3.25h10A2.75 2.75 0 0 1 19.75 6v6a.75.75 0 0 1-1.5 0V6c0-.69-.56-1.25-1.25-1.25H7c-.69 0-1.25.56-1.25 1.25v12c0 .69.56 1.25 1.25 1.25h5a.75.75 0 0 1 0 1.5H7A2.75 2.75 0 0 1 4.25 18zm4 2A.75.75 0 0 1 9 7.25h3a.75.75 0 0 1 0 1.5H9A.75.75 0 0 1 8.25 8m0 3.5a.75.75 0 0 1 .75-.75h6a.75.75 0 0 1 0 1.5H9a.75.75 0 0 1-.75-.75m9.427 2.288a.75.75 0 0 1 0 1.06l-1.902 1.902h5.26a.75.75 0 0 1 0 1.5h-5.26l1.902 1.902a.75.75 0 0 1-1.06 1.06l-3.183-3.182a.75.75 0 0 1 0-1.06l3.182-3.182a.75.75 0 0 1 1.06 0M8.25 15a.75.75 0 0 1 .75-.75h2.5a.75.75 0 0 1 0 1.5H9a.75.75 0 0 1-.75-.75" clip-rule="evenodd"/></svg>