<svg xmlns="http://www.w3.org/2000/svg" fill="none" viewBox="0 0 24 24"><path fill="#7A7A7A" fill-rule="evenodd" d="M18.428 5.572a2.806 2.806 0 0 0-3.967 0l-.978.977a.75.75 0 0 1-1.06-1.06l.977-.978a4.305 4.305 0 1 1 6.089 6.089l-3.556 3.556a4.306 4.306 0 0 1-6.089 0 .75.75 0 0 1 1.061-1.061 2.805 2.805 0 0 0 3.968 0l3.555-3.556a2.806 2.806 0 0 0 0-3.967m-5.333 5.333a2.805 2.805 0 0 0-3.968 0l-3.555 3.556a2.806 2.806 0 0 0 3.967 3.967l.98-.979a.75.75 0 0 1 1.06 1.06l-.979.98A4.305 4.305 0 1 1 4.511 13.4l3.556-3.556a4.306 4.306 0 0 1 6.089 0 .75.75 0 0 1-1.061 1.061" clip-rule="evenodd"/></svg>