<svg xmlns="http://www.w3.org/2000/svg" fill="none" viewBox="0 0 24 24"><path fill="#7A7A7A" fill-rule="evenodd" d="M12 2.25a.75.75 0 0 1 .75.75v1.286a7.75 7.75 0 0 1 6.964 6.964H21a.75.75 0 0 1 0 1.5h-1.286a7.75 7.75 0 0 1-6.964 6.964V21a.75.75 0 0 1-1.5 0v-1.286a7.75 7.75 0 0 1-6.964-6.964H3a.75.75 0 0 1 0-1.5h1.286a7.75 7.75 0 0 1 6.964-6.964V3a.75.75 0 0 1 .75-.75m-.75 3.545a6.25 6.25 0 0 0-5.455 5.455H7a.75.75 0 0 1 0 1.5H5.795a6.25 6.25 0 0 0 5.455 5.456V17a.75.75 0 0 1 1.5 0v1.206a6.25 6.25 0 0 0 5.456-5.456H17a.75.75 0 0 1 0-1.5h1.206a6.25 6.25 0 0 0-5.456-5.455V7a.75.75 0 0 1-1.5 0z" clip-rule="evenodd"/><path fill="#7A7A7A" d="M14 12a2 2 0 1 1-4 0 2 2 0 0 1 4 0"/></svg>