<svg xmlns="http://www.w3.org/2000/svg" fill="none" viewBox="0 0 24 24"><path fill="#000" d="M3.462 20.18c-.427 0-.824-.22-1.036-.573a1.19 1.19 0 0 1-.073-1.108c.057-.118.147-.272.227-.407q.069-.114.117-.203l8.249-14.263A1.2 1.2 0 0 1 12.003 3c.407 0 .78.203.998.542.88 1.508 2.255 3.89 3.586 6.194l2.235 3.866 1.483 2.564 1.284 2.221c.215.37.215.817-.002 1.193a1.18 1.18 0 0 1-1.03.598H3.515zm14.477-1.458h1.868c.06 0 .116-.031.146-.084a.17.17 0 0 0 0-.168l-1.565-2.705c-1.116-1.243-2.297-2.08-3.513-2.493a1.44 1.44 0 0 1-.194.692l-1.418 2.452a1.4 1.4 0 0 1-.2.267c-.056.083-.176.26-.19.284l-.005.01-.007.008c-.334.41-.702.763-1.122 1.083q-.468.355-1.01.653zM4.83 17.114c-.072.129-.344.598-.607 1.051l-.176.304a.17.17 0 0 0 0 .168c.03.052.084.084.146.084H7.32c1.636-.342 2.953-.945 3.918-1.79a1.44 1.44 0 0 1-.503-.514l-1.418-2.452a1.5 1.5 0 0 1-.132-.305c-.044-.09-.138-.282-.152-.306l-.006-.01-.003-.01a6.5 6.5 0 0 1-.378-1.512c-.05-.387-.07-.79-.062-1.2zm6.975-1.314a.222.222 0 0 0 .355.043l.068-.102 1.383-2.392a.224.224 0 0 0-.14-.329l-.123-.009v.001h-2.766a.224.224 0 0 0-.215.286q.037.072.054.11zm2.306-3.958a6.6 6.6 0 0 1 1.5.43q.542.226 1.07.545c-1.429-2.47-3.296-5.7-4.536-7.848A.17.17 0 0 0 12 4.885a.17.17 0 0 0-.145.084l-1.563 2.703c-.521 1.587-.658 3.028-.407 4.286a1.45 1.45 0 0 1 .698-.178h2.835q.164 0 .33.039c.115.008.313.022.342.022h.013z"/></svg>