<svg xmlns="http://www.w3.org/2000/svg" fill="none" viewBox="0 0 24 24"><g clip-path="url(#a)"><path fill="#000" d="M0 5a5 5 0 0 1 5-5h14a5 5 0 0 1 5 5v14a5 5 0 0 1-5 5H5a5 5 0 0 1-5-5z"/><path fill="#fff" stroke="#fff" d="m12.82 15.076-.304.306.419.508-1.665.962.414.905.148-.052.09.683h6.963a.747.747 0 0 0 .646-1.121h.001l-.777-1.345-.191-.332-.37.1-2.277.609 1.928-.663.706-.243.117.202 1.27 2.197.008.016a.46.46 0 0 1-.338.664l-.063.005H7.403l.586-.157c.432-.115.872-.26 1.304-.436l.283-.116.003.037.691-.395q.34-.193.655-.424l.094-.069.02.058.566-.57q.1-.1.19-.204l.18-.214.644-.81h-.054l-.016-.026a.8.8 0 0 0 .144-.166zm-2.848-7.21c-.116.43-.212.883-.275 1.346l-.04.304-.035-.017-.003.797q0 .265.02.532l-.45.45.487.13.147.545q.074.27.176.53l.124.317h.42a.83.83 0 0 0-.037.805l-.14.065-.112-.416-.099-.371h-.551V11.44l-.992-.095-.03.154-.634-.263-2.79 4.832-.004.006c-.076.136-.426.741-.686 1.19l-.068.116v.04a.747.747 0 0 0 .714.967H7.05l.098-.371.608-2.27-.387 1.995-.142.736H4.495a.47.47 0 0 1-.39-.166l-.035-.048-.006-.01-.043-.096a.46.46 0 0 1 .013-.308c.068-.143.178-.31.286-.506v-.001l5.583-9.668v-.001l.223-.387zm1.625-3.127a.46.46 0 0 1 .745-.086l.037.051c1.28 2.203 3.823 6.623 5.119 8.862l.737 1.279.223.385-.423-.42c-.316-.316-.66-.626-1.03-.912l-.242-.188.032-.02-.688-.4a7 7 0 0 0-.694-.356l-.107-.048.039-.044-.778-.205a5 5 0 0 0-.544-.114l-.338-.05-.17.296-.04.069a.83.83 0 0 0-.68-.437l.015-.153.417.112.231-.62 1.665.962.578-.81-.123-.107.547-.418-3.411-5.912-.068-.117a.748.748 0 0 0-1.235-.087l-.059.087c-.24.418-.5.87-.776 1.347l-.192.332 1.933 1.933-1.534-1.334-.564-.49.117-.201 1.253-2.171.004-.008z"/></g><defs><clipPath id="a"><path fill="#fff" d="M0 0H24V24H0z"/></clipPath></defs></svg>