<svg xmlns="http://www.w3.org/2000/svg" fill="none" viewBox="0 0 24 24"><g clip-path="url(#a)"><path fill="#7A7A7A" fill-rule="evenodd" d="M5 0a5 5 0 0 0-5 5v14a5 5 0 0 0 5 5h14a5 5 0 0 0 5-5V5a5 5 0 0 0-5-5zM3.653 18.478a1.05 1.05 0 0 0 .951.498H19.46c.374 0 .71-.195.899-.522s.19-.716.002-1.04l-1.12-1.936c-.488-.843-.99-1.71-1.292-2.235L16.42 10.6l-.421-.729c-1.16-2.008-2.36-4.085-3.126-5.4a1.03 1.03 0 0 0-.87-.472c-.389 0-.743.21-.922.546l-7.286 12.6-.007.01-.01.017c-.067.114-.141.24-.188.339-.14.304-.115.684.063.966m13.525-.772h1.628c.053 0 .1-.027.127-.073a.14.14 0 0 0 0-.146l-1.364-2.359c-.973-1.083-2.002-1.814-3.063-2.173a1.25 1.25 0 0 1-.17.604l-1.235 2.137q-.072.124-.174.232l-.166.248-.004.01-.006.006a5.7 5.7 0 0 1-.978.944 7 7 0 0 1-.88.57h6.285M5.749 16.305c-.062.112-.3.52-.529.916l-.154.265a.14.14 0 0 0 0 .146.14.14 0 0 0 .128.073H7.92c1.426-.298 2.574-.823 3.415-1.56a1.26 1.26 0 0 1-.438-.448L9.662 13.56a1.3 1.3 0 0 1-.115-.267l-.017-.034-.115-.233-.006-.009-.003-.007a5.7 5.7 0 0 1-.33-1.319 7 7 0 0 1-.053-1.046zm6.08-1.146a.194.194 0 0 0 .31.038l.06-.09 1.206-2.085a.196.196 0 0 0-.122-.287l-.108-.007h-2.411a.196.196 0 0 0-.187.25l.047.096zm2.011-3.45c.456.074.884.196 1.309.374q.472.197.932.475c-1.246-2.153-2.874-4.97-3.954-6.841a.14.14 0 0 0-.128-.074c-.053 0-.1.028-.126.074L10.51 8.073c-.454 1.384-.574 2.64-.355 3.737.187-.102.395-.155.609-.155h2.471q.143 0 .289.033l.075.005c.094.007.203.015.223.015h.018" clip-rule="evenodd"/></g><defs><clipPath id="a"><path fill="#fff" d="M0 0H24V24H0z"/></clipPath></defs></svg>