<svg xmlns="http://www.w3.org/2000/svg" fill="none" viewBox="0 0 24 24"><path fill="#7A7A7A" fill-rule="evenodd" d="M20.75 12A8.75 8.75 0 0 0 6.166 5.478l-.002.002L4.75 6.757V4a.75.75 0 0 0-1.5 0v4.444c0 .415.336.75.75.75h4.444a.75.75 0 1 0 0-1.5H5.95l1.217-1.098.001-.001a7.25 7.25 0 0 1 9.944 10.546.75.75 0 1 0 1.058 1.064A8.73 8.73 0 0 0 20.75 12" clip-rule="evenodd"/><path fill="#7A7A7A" d="M11.344 20.972c-1.19 0-2.22-.568-2.6-1.41a1.2 1.2 0 0 1-.123-.525c0-.36.23-.585.595-.585.29 0 .466.113.611.397.263.627.777.997 1.523.997.917 0 1.565-.649 1.565-1.565 0-.89-.648-1.523-1.56-1.523-.488 0-.911.198-1.206.488-.322.321-.456.391-.772.391-.445 0-.665-.316-.655-.692 0-.032 0-.053.006-.085l.246-2.923c.049-.61.36-.857.966-.857h3.335c.354 0 .584.225.584.563 0 .343-.23.568-.584.568h-3.126l-.204 2.29h.027c.327-.483.965-.784 1.742-.784 1.48 0 2.537 1.046 2.537 2.526 0 1.62-1.19 2.73-2.907 2.73M5.988 20.924c-.402 0-.681-.279-.681-.697V14.42H5.28l-1.25.869a.6.6 0 0 1-.39.134c-.29 0-.5-.21-.5-.515 0-.215.086-.375.317-.536l1.582-1.11c.343-.242.557-.29.847-.29.488 0 .783.295.783.772v6.483c0 .418-.279.697-.681.697"/></svg>