<svg xmlns="http://www.w3.org/2000/svg" fill="none" viewBox="0 0 24 24"><path fill="#7A7A7A" fill-rule="evenodd" d="M3.25 6A2.75 2.75 0 0 1 6 3.25h5a.75.75 0 0 1 0 1.5H6c-.69 0-1.25.56-1.25 1.25v12c0 .69.56 1.25 1.25 1.25h12c.69 0 1.25-.56 1.25-1.25v-5a.75.75 0 0 1 1.5 0v5A2.75 2.75 0 0 1 18 20.75H6A2.75 2.75 0 0 1 3.25 18z" clip-rule="evenodd"/><path fill="#7A7A7A" fill-rule="evenodd" d="M15 4.75a.75.75 0 0 1 0-1.5h5a.75.75 0 0 1 .75.75v5a.75.75 0 0 1-1.5 0V5.81l-7.44 7.44H15a.75.75 0 0 1 0 1.5h-5a.75.75 0 0 1-.75-.75V9a.75.75 0 0 1 1.5 0v3.19l7.44-7.44z" clip-rule="evenodd"/></svg>