<svg xmlns="http://www.w3.org/2000/svg" fill="none" viewBox="0 0 24 24"><path fill="#7A7A7A" fill-rule="evenodd" d="M12 3.25a.75.75 0 0 1 .651.378l3.556 6.222a.75.75 0 0 1-.651 1.122H8.444a.75.75 0 0 1-.65-1.122l3.555-6.222A.75.75 0 0 1 12 3.25M9.737 9.472h4.526L12 5.512zM7.11 14.528a2.361 2.361 0 1 0 0 4.722 2.361 2.361 0 0 0 0-4.722m-3.861 2.36a3.861 3.861 0 1 1 7.722 0 3.861 3.861 0 0 1-7.722 0m9.778-3.11a.75.75 0 0 1 .75-.75H20a.75.75 0 0 1 .75.75V20a.75.75 0 0 1-.75.75h-6.222a.75.75 0 0 1-.75-.75zm1.5.75v4.722h4.722v-4.722z" clip-rule="evenodd"/></svg>