<svg xmlns="http://www.w3.org/2000/svg" fill="none" viewBox="0 0 24 24"><path fill="#77757D" fill-rule="evenodd" d="M8.263 2.48a.735.735 0 1 0 .054 1.47l4.276-.159c.34-.012.67.117.911.358l6.307 6.307a.735.735 0 1 0 1.039-1.04L14.543 3.11a2.7 2.7 0 0 0-2.005-.788zm-.536 4.242a3.185 3.185 0 0 0-3.065 3.065l-.126 3.41c-.013.34.117.67.358.91l5.618 5.619a1.225 1.225 0 0 0 1.732 0l5.422-5.422a1.225 1.225 0 0 0 0-1.732l-5.618-5.618c-.241-.24-.572-.37-.912-.358zm-4.534 3.01a4.654 4.654 0 0 1 4.48-4.479l3.409-.126a2.7 2.7 0 0 1 2.005.788l5.618 5.618a2.695 2.695 0 0 1 0 3.81l-5.422 5.422a2.695 2.695 0 0 1-3.81 0l-5.619-5.618a2.7 2.7 0 0 1-.787-2.005zm4.673-.976a.828.828 0 1 1-1.17 1.17.828.828 0 0 1 1.17-1.17" clip-rule="evenodd"/></svg>