<svg xmlns="http://www.w3.org/2000/svg" fill="none" viewBox="0 0 24 24"><path fill="#84CFFF" d="M2 12a5 5 0 0 1 5-5h2a5 5 0 0 1 0 10H7a5 5 0 0 1-5-5" opacity=".14"/><path fill="#84CFFF" fill-rule="evenodd" d="M2.293 2.293a1 1 0 0 1 1.414 0l4 4 14 14a1 1 0 0 1-1.414 1.414L16.586 18H16.5a1 1 0 0 1-.997-1.082l-1.542-1.543A6 6 0 0 1 9 18H7A6 6 0 0 1 4.946 6.36L2.293 3.708a1 1 0 0 1 0-1.414m4.312 5.726A4 4 0 0 0 7 16h2a4 4 0 0 0 3.509-2.077l-1.572-1.572A1 1 0 0 1 9 12q.001-.732.169-1.417zM15 8c-.556 0-1.084.113-1.562.316a1 1 0 1 1-.783-1.84A6 6 0 0 1 15 6h2a6 6 0 0 1 4.615 9.835 1 1 0 0 1-1.538-1.279A4 4 0 0 0 17 8z" clip-rule="evenodd"/></svg>