<svg id="iconce.com" width="1024" height="1024" viewBox="0 0 1024 1024" fill="none" xmlns="http://www.w3.org/2000/svg" xmlns:xlink="http://www.w3.org/1999/xlink"><defs><linearGradient id="r5" gradientUnits="userSpaceOnUse" gradientTransform="rotate(45)" style="transform-origin:center center"><stop stop-color="#ffffff"/><stop offset="1" stop-color="#3F5EFB"/></linearGradient><radialGradient id="r6" cx="0" cy="0" r="1" gradientUnits="userSpaceOnUse" gradientTransform="translate(256) rotate(90) scale(512)"><stop stop-color="white"/><stop offset="1" stop-color="white" stop-opacity="0"/></radialGradient></defs><rect id="r4" width="1024" height="1024" x="0" y="0" rx="64" fill="#ffffff" stroke="#FFFFFF" stroke-width="0" stroke-opacity="100%" paint-order="stroke"/><svg xmlns="http://www.w3.org/2000/svg" xmlns:xlink="http://www.w3.org/1999/xlink" t="1767191301080" class="icon" viewBox="0 0 1820 1024" version="1.1" p-id="105199" width="777" height="777" x="123.5" y="123.5"><path d="M1800.305778 807.556741c34.929778 67.053037 9.443556 149.31437-57.002667 183.978666-66.37037 34.664296-148.517926 8.571259-183.447704-58.481777L1180.520296 206.051556c-34.853926-66.901333-9.367704-149.238519 57.002667-183.864889 66.408296-34.702222 148.593778-8.495407 183.48563 58.405926l379.297185 726.964148zM1144.035556 842.372741c29.620148 51.427556 5.688889 120.718222-53.551408 154.965333-59.126519 34.171259-131.072 20.29037-160.805926-31.099259l-322.180741-557.586963c-29.620148-51.351704-5.726815-120.680296 53.475556-154.851556 59.20237-34.209185 131.26163-20.328296 160.881778 30.985482l322.180741 557.586963z" p-id="105200" fill="#2c2c2c"/><path d="M156.444444 734.776889m-150.110814 0a150.110815 150.110815 0 1 0 300.221629 0 150.110815 150.110815 0 1 0-300.221629 0Z" p-id="105201" fill="#2c2c2c"/></svg></svg>